<?xml version="1.0" encoding="UTF-8"?>
<svg width="18px" height="18px" viewBox="0 0 18 18" version="1.1" xmlns="http://www.w3.org/2000/svg" xmlns:xlink="http://www.w3.org/1999/xlink">
    <title>nav_ic_Share@2x</title>
    <g id="页面-1" stroke="none" stroke-width="1" fill="none" fill-rule="evenodd">
        <g id="指南_MacCms-V10.x" transform="translate(-1474.000000, -23.000000)">
            <g id="nav_ic_Share" transform="translate(839.000000, 22.000000)">
                <g transform="translate(635.000000, 1.000000)" id="编组-21">
                    <rect id="矩形" x="0" y="0" width="18" height="18"></rect>
                    <path d="M1.34000274,15.8142091 C1.11387965,15.0416011 0.999347801,14.2396279 0.999848391,13.4334668 C0.999848391,8.98446088 4.59700087,5.08634729 8.83200012,5.08634729 C8.97200009,5.08634729 9.22400005,5.08940083 9.5,5.09754359 L9.5,2.5 C9.5,1.96257719 9.81699994,1.72134763 10.1299999,1.72134763 C10.3059999,1.72134763 10.4839998,1.79361471 10.6599998,1.93611319 L16.6280001,7.19814074 C16.864,7.39153153 16.9998484,7.66533216 16.9998484,7.95134695 C16.9998484,8.2363439 16.864,8.51014453 16.6270001,8.70251747 L10.6589998,13.5199498 C10.4839998,13.6624483 10.3059999,13.7357332 10.1289999,13.7357332 C9.81599995,13.7357332 9.50000001,13.4945036 9.5,12.956063 L9.5,10.5 C9.27772625,10.493064 9.0553771,10.4869709 8.83300013,10.4877858 C5.5,10.5 2.94100245,12.7270815 2.03500261,15.8142091 C2.03501265,16.5251892 2.02334512,16.9204528 2,17 C1.98121277,17.0640165 1.56612582,16.5868172 1.34000274,15.8142091 Z" id="形状" stroke="#4D5366" fill-rule="nonzero"></path>
                </g>
            </g>
        </g>
    </g>
</svg>